<?xml version="1.0" encoding="UTF-8" standalone="no"?>
<!DOCTYPE svg PUBLIC "-//W3C//DTD SVG 1.1//EN"
 "http://www.w3.org/Graphics/SVG/1.1/DTD/svg11.dtd">
<!-- Generated by graphviz version 2.40.1 (20161225.0304)
 -->
<!-- Title: dependencies Pages: 1 -->
<svg width="1308pt" height="284pt"
 viewBox="0.00 0.00 1308.00 284.00" xmlns="http://www.w3.org/2000/svg" xmlns:xlink="http://www.w3.org/1999/xlink">
<g id="graph0" class="graph" transform="scale(1 1) rotate(0) translate(4 280)">
<title>dependencies</title>
<polygon fill="#ffffff" stroke="transparent" points="-4,4 -4,-280 1304,-280 1304,4 -4,4"/>
<text text-anchor="start" x="629.0091" y="-42.4" font-family="sans-serif" font-weight="bold" font-size="14.00" fill="#000000">Legend</text>
<polygon fill="#ffffb3" stroke="transparent" points="416,-10 416,-30 436,-30 436,-10 416,-10"/>
<text text-anchor="start" x="439.629" y="-15.4" font-family="sans-serif" font-size="14.00" fill="#000000"> &#160;Declarations</text>
<polygon fill="#8dd3c7" stroke="transparent" points="529,-10 529,-30 549,-30 549,-10 529,-10"/>
<text text-anchor="start" x="552.7251" y="-15.4" font-family="sans-serif" font-size="14.00" fill="#000000"> &#160;Module</text>
<polygon fill="#80b1d3" stroke="transparent" points="615,-10 615,-30 635,-30 635,-10 615,-10"/>
<text text-anchor="start" x="638.7812" y="-15.4" font-family="sans-serif" font-size="14.00" fill="#000000"> &#160;Bootstrap</text>
<polygon fill="#fdb462" stroke="transparent" points="712,-10 712,-30 732,-30 732,-10 712,-10"/>
<text text-anchor="start" x="735.6732" y="-15.4" font-family="sans-serif" font-size="14.00" fill="#000000"> &#160;Providers</text>
<polygon fill="#fb8072" stroke="transparent" points="808,-10 808,-30 828,-30 828,-10 808,-10"/>
<text text-anchor="start" x="831.7258" y="-15.4" font-family="sans-serif" font-size="14.00" fill="#000000"> &#160;Exports</text>
<g id="clust1" class="cluster">
<title>cluster_AppModule</title>
<polygon fill="none" stroke="#000000" stroke-dasharray="1,5" points="8,-70 8,-268 1292,-268 1292,-70 8,-70"/>
</g>
<g id="clust2" class="cluster">
<title>cluster_AppModule_declarations</title>
<polygon fill="none" stroke="#000000" points="168,-78 168,-130 1284,-130 1284,-78 168,-78"/>
</g>
<g id="clust10" class="cluster">
<title>cluster_AppModule_imports</title>
<polygon fill="none" stroke="#000000" points="16,-78 16,-130 160,-130 160,-78 16,-78"/>
</g>
<g id="clust12" class="cluster">
<title>cluster_AppModule_bootstrap</title>
<polygon fill="none" stroke="#000000" points="598,-208 598,-260 722,-260 722,-208 598,-208"/>
</g>
<!-- AccessbasisComponent -->
<g id="node1" class="node">
<title>AccessbasisComponent</title>
<polygon fill="#ffffb3" stroke="#000000" points="1276.4664,-122 1127.5336,-122 1127.5336,-86 1276.4664,-86 1276.4664,-122"/>
<text text-anchor="middle" x="1202" y="-99.8" font-family="Times,serif" font-size="14.00" fill="#000000">AccessbasisComponent</text>
</g>
<!-- AppModule -->
<g id="node8" class="node">
<title>AppModule</title>
<polygon fill="#8dd3c7" stroke="#000000" points="701.6571,-187 698.6571,-191 677.6571,-191 674.6571,-187 618.3429,-187 618.3429,-151 701.6571,-151 701.6571,-187"/>
<text text-anchor="middle" x="660" y="-164.8" font-family="Times,serif" font-size="14.00" fill="#000000">AppModule</text>
</g>
<!-- AccessbasisComponent&#45;&gt;AppModule -->
<g id="edge1" class="edge">
<title>AccessbasisComponent&#45;&gt;AppModule</title>
<path fill="none" stroke="#000000" d="M1202,-122.2921C1202,-144.2057 1202,-178 1202,-178 1202,-178 712.0788,-178 712.0788,-178"/>
<polygon fill="#000000" stroke="#000000" points="712.0789,-174.5001 702.0788,-178 712.0788,-181.5001 712.0789,-174.5001"/>
</g>
<!-- AppComponent -->
<g id="node2" class="node">
<title>AppComponent</title>
<polygon fill="#ffffb3" stroke="#000000" points="1109.9399,-122 1004.0601,-122 1004.0601,-86 1109.9399,-86 1109.9399,-122"/>
<text text-anchor="middle" x="1057" y="-99.8" font-family="Times,serif" font-size="14.00" fill="#000000">AppComponent</text>
</g>
<!-- AppComponent&#45;&gt;AppModule -->
<g id="edge2" class="edge">
<title>AppComponent&#45;&gt;AppModule</title>
<path fill="none" stroke="#000000" d="M1057,-122.1061C1057,-141.3391 1057,-169 1057,-169 1057,-169 711.7356,-169 711.7356,-169"/>
<polygon fill="#000000" stroke="#000000" points="711.7356,-165.5001 701.7356,-169 711.7356,-172.5001 711.7356,-165.5001"/>
</g>
<!-- DoneComponent -->
<g id="node3" class="node">
<title>DoneComponent</title>
<polygon fill="#ffffb3" stroke="#000000" points="985.6541,-122 874.3459,-122 874.3459,-86 985.6541,-86 985.6541,-122"/>
<text text-anchor="middle" x="930" y="-99.8" font-family="Times,serif" font-size="14.00" fill="#000000">DoneComponent</text>
</g>
<!-- DoneComponent&#45;&gt;AppModule -->
<g id="edge3" class="edge">
<title>DoneComponent&#45;&gt;AppModule</title>
<path fill="none" stroke="#000000" d="M930,-122.027C930,-138.3976 930,-160 930,-160 930,-160 711.8913,-160 711.8913,-160"/>
<polygon fill="#000000" stroke="#000000" points="711.8913,-156.5001 701.8913,-160 711.8912,-163.5001 711.8913,-156.5001"/>
</g>
<!-- EducationalchoiceComponent -->
<g id="node4" class="node">
<title>EducationalchoiceComponent</title>
<polygon fill="#ffffb3" stroke="#000000" points="856.2352,-122 671.7648,-122 671.7648,-86 856.2352,-86 856.2352,-122"/>
<text text-anchor="middle" x="764" y="-99.8" font-family="Times,serif" font-size="14.00" fill="#000000">EducationalchoiceComponent</text>
</g>
<!-- EducationalchoiceComponent&#45;&gt;AppModule -->
<g id="edge4" class="edge">
<title>EducationalchoiceComponent&#45;&gt;AppModule</title>
<path fill="none" stroke="#000000" d="M686.7304,-122.1061C686.7304,-122.1061 686.7304,-140.991 686.7304,-140.991"/>
<polygon fill="#000000" stroke="#000000" points="683.2304,-140.9909 686.7304,-150.991 690.2304,-140.991 683.2304,-140.9909"/>
</g>
<!-- PersonalinformationComponent -->
<g id="node5" class="node">
<title>PersonalinformationComponent</title>
<polygon fill="#ffffb3" stroke="#000000" points="653.6385,-122 458.3615,-122 458.3615,-86 653.6385,-86 653.6385,-122"/>
<text text-anchor="middle" x="556" y="-99.8" font-family="Times,serif" font-size="14.00" fill="#000000">PersonalinformationComponent</text>
</g>
<!-- PersonalinformationComponent&#45;&gt;AppModule -->
<g id="edge5" class="edge">
<title>PersonalinformationComponent&#45;&gt;AppModule</title>
<path fill="none" stroke="#000000" d="M635.9954,-122.1061C635.9954,-122.1061 635.9954,-140.991 635.9954,-140.991"/>
<polygon fill="#000000" stroke="#000000" points="632.4955,-140.9909 635.9954,-150.991 639.4955,-140.991 632.4955,-140.9909"/>
</g>
<!-- StepperComponent -->
<g id="node6" class="node">
<title>StepperComponent</title>
<polygon fill="#ffffb3" stroke="#000000" points="440.0954,-122 315.9046,-122 315.9046,-86 440.0954,-86 440.0954,-122"/>
<text text-anchor="middle" x="378" y="-99.8" font-family="Times,serif" font-size="14.00" fill="#000000">StepperComponent</text>
</g>
<!-- StepperComponent&#45;&gt;AppModule -->
<g id="edge6" class="edge">
<title>StepperComponent&#45;&gt;AppModule</title>
<path fill="none" stroke="#000000" d="M378,-122.027C378,-138.3976 378,-160 378,-160 378,-160 608.0863,-160 608.0863,-160"/>
<polygon fill="#000000" stroke="#000000" points="608.0863,-163.5001 618.0863,-160 608.0862,-156.5001 608.0863,-163.5001"/>
</g>
<!-- UploadComponent -->
<g id="node7" class="node">
<title>UploadComponent</title>
<polygon fill="#ffffb3" stroke="#000000" points="298.045,-122 175.955,-122 175.955,-86 298.045,-86 298.045,-122"/>
<text text-anchor="middle" x="237" y="-99.8" font-family="Times,serif" font-size="14.00" fill="#000000">UploadComponent</text>
</g>
<!-- UploadComponent&#45;&gt;AppModule -->
<g id="edge7" class="edge">
<title>UploadComponent&#45;&gt;AppModule</title>
<path fill="none" stroke="#000000" d="M237,-122.1061C237,-141.3391 237,-169 237,-169 237,-169 608.2835,-169 608.2835,-169"/>
<polygon fill="#000000" stroke="#000000" points="608.2835,-172.5001 618.2835,-169 608.2834,-165.5001 608.2835,-172.5001"/>
</g>
<!-- AppComponent  -->
<g id="node10" class="node">
<title>AppComponent </title>
<polygon fill="#80b1d3" stroke="#000000" points="714.439,-252 605.561,-252 605.561,-216 714.439,-216 714.439,-252"/>
<text text-anchor="middle" x="660" y="-229.8" font-family="Times,serif" font-size="14.00" fill="#000000">AppComponent </text>
</g>
<!-- AppModule&#45;&gt;AppComponent  -->
<g id="edge9" class="edge">
<title>AppModule&#45;&gt;AppComponent </title>
<path fill="none" stroke="#000000" stroke-dasharray="1,5" d="M660,-187.1061C660,-187.1061 660,-205.991 660,-205.991"/>
<polygon fill="#000000" stroke="#000000" points="656.5001,-205.9909 660,-215.991 663.5001,-205.991 656.5001,-205.9909"/>
</g>
<!-- AppRoutingModule -->
<g id="node9" class="node">
<title>AppRoutingModule</title>
<polygon fill="#8dd3c7" stroke="#000000" points="152.2744,-122 149.2744,-126 128.2744,-126 125.2744,-122 23.7256,-122 23.7256,-86 152.2744,-86 152.2744,-122"/>
<text text-anchor="middle" x="88" y="-99.8" font-family="Times,serif" font-size="14.00" fill="#000000">AppRoutingModule</text>
</g>
<!-- AppRoutingModule&#45;&gt;AppModule -->
<g id="edge8" class="edge">
<title>AppRoutingModule&#45;&gt;AppModule</title>
<path fill="none" stroke="#000000" d="M88,-122.2921C88,-144.2057 88,-178 88,-178 88,-178 607.9395,-178 607.9395,-178"/>
<polygon fill="#000000" stroke="#000000" points="607.9395,-181.5001 617.9395,-178 607.9394,-174.5001 607.9395,-181.5001"/>
</g>
</g>
</svg>
